<svg width="20" height="26" viewBox="0 0 20 26" fill="none" xmlns="http://www.w3.org/2000/svg">
<path d="M1.11877 19.9624L0.321087 19.3594H0.321087L1.11877 19.9624ZM2.42712 16.235L1.42712 16.2228V16.235H2.42712ZM2.45458 13.9814L3.45458 13.9936V13.9814H2.45458ZM18.8882 19.9805L19.6978 19.3936L19.6978 19.3936L18.8882 19.9805ZM17.6291 16.235L16.6291 16.2222V16.235H17.6291ZM17.6566 14.0931L18.6566 14.1059V14.0931H17.6566ZM1.91645 20.5655C2.67079 19.5678 3.42712 18.0695 3.42712 16.235H1.42712C1.42712 17.5111 0.898267 18.5959 0.321087 19.3594L1.91645 20.5655ZM3.42705 16.2472L3.45451 13.9936L1.45466 13.9692L1.4272 16.2228L3.42705 16.2472ZM19.6978 19.3936C19.1452 18.6312 18.6291 17.5339 18.6291 16.235H16.6291C16.6291 18.0681 17.3539 19.5679 18.0786 20.5675L19.6978 19.3936ZM18.629 16.2479L18.6565 14.1059L16.6566 14.0803L16.6292 16.2222L18.629 16.2479ZM18.6566 14.0931C18.6566 9.29652 14.7854 5.40001 10 5.40001V7.40001C13.6718 7.40001 16.6566 10.3921 16.6566 14.0931H18.6566ZM18.43 22.025C19.1898 22.025 19.6667 21.4894 19.859 21.0355C20.0507 20.5831 20.0897 19.9341 19.6978 19.3936L18.0786 20.5675C17.9625 20.4074 18.0067 20.2807 18.0174 20.2553C18.0288 20.2285 18.1387 20.025 18.43 20.025V22.025ZM3.45458 13.9814C3.45458 10.3421 6.38955 7.40001 10 7.40001V5.40001C5.27602 5.40001 1.45458 9.24652 1.45458 13.9814H3.45458ZM1.57109 20.025C1.70569 20.025 1.81669 20.0768 1.88642 20.1329C1.94916 20.1833 1.97456 20.2319 1.98443 20.256C1.99471 20.281 2.00238 20.3132 1.99933 20.3574C1.99613 20.4038 1.97867 20.4832 1.91645 20.5655L0.321087 19.3594C-0.088161 19.9007 -0.0528362 20.5601 0.134505 21.0161C0.32215 21.4728 0.798687 22.025 1.57109 22.025V20.025ZM18.43 20.025H1.57109V22.025H18.43V20.025ZM12.6 21.025C12.6 22.2769 11.4977 23.4 10 23.4V25.4C12.4787 25.4 14.6 23.5011 14.6 21.025H12.6ZM10 23.4C8.50229 23.4 7.4 22.2769 7.4 21.025H5.4C5.4 23.5011 7.52126 25.4 10 25.4V23.4ZM11.4 4.00001C11.4 4.77321 10.7732 5.40001 10 5.40001V7.40001C11.8778 7.40001 13.4 5.87777 13.4 4.00001H11.4ZM10 5.40001C9.2268 5.40001 8.6 4.77321 8.6 4.00001H6.6C6.6 5.87777 8.12223 7.40001 10 7.40001V5.40001ZM8.6 4.00001C8.6 3.22681 9.2268 2.60001 10 2.60001V0.600006C8.12223 0.600006 6.6 2.12224 6.6 4.00001H8.6ZM10 2.60001C10.7732 2.60001 11.4 3.22681 11.4 4.00001H13.4C13.4 2.12224 11.8778 0.600006 10 0.600006V2.60001Z" fill="#333333"/>
</svg>
