<svg width="20" height="13" viewBox="0 0 20 13" fill="none" xmlns="http://www.w3.org/2000/svg">
<path fill-rule="evenodd" clip-rule="evenodd" d="M19.2 1.225C19.2 0.603678 18.7224 0.0999985 18.1333 0.0999985H17.0667C16.4776 0.0999985 16 0.603678 16 1.225V10.975C16 11.5963 16.4776 12.1 17.0667 12.1H18.1333C18.7224 12.1 19.2 11.5963 19.2 10.975V1.225ZM11.7667 2.5H12.8333C13.4224 2.5 13.9 3.01577 13.9 3.652V10.948C13.9 11.5842 13.4224 12.1 12.8333 12.1H11.7667C11.1776 12.1 10.7 11.5842 10.7 10.948V3.652C10.7 3.01577 11.1776 2.5 11.7667 2.5ZM7.43333 5.1H6.36667C5.77756 5.1 5.3 5.62233 5.3 6.26666V10.9333C5.3 11.5777 5.77756 12.1 6.36667 12.1H7.43333C8.02244 12.1 8.5 11.5777 8.5 10.9333V6.26666C8.5 5.62233 8.02244 5.1 7.43333 5.1ZM2.13333 7.5H1.06667C0.477563 7.5 0 8.01487 0 8.65V10.95C0 11.5851 0.477563 12.1 1.06667 12.1H2.13333C2.72244 12.1 3.2 11.5851 3.2 10.95V8.65C3.2 8.01487 2.72244 7.5 2.13333 7.5Z" fill="#181818"/>
</svg>
