<svg width="14" height="14" viewBox="0 0 14 14" fill="none" xmlns="http://www.w3.org/2000/svg">
<path d="M6.66333 0.809248C6.80104 0.530218 7.19893 0.530218 7.33664 0.809248L9.11931 4.42133C9.174 4.53213 9.2797 4.60893 9.40198 4.6267L13.3882 5.20593C13.6961 5.25067 13.819 5.62909 13.5962 5.84628L10.7118 8.6579C10.6233 8.74414 10.5829 8.86841 10.6038 8.99019L11.2847 12.9603C11.3373 13.2669 11.0154 13.5008 10.74 13.356L7.17469 11.4816C7.06532 11.4241 6.93466 11.4241 6.82529 11.4816L3.25995 13.356C2.98453 13.5008 2.66263 13.2669 2.71523 12.9603L3.39615 8.99019C3.41704 8.86841 3.37666 8.74414 3.28818 8.6579L0.403761 5.84628C0.180942 5.62909 0.303896 5.25067 0.611825 5.20593L4.59799 4.6267C4.72027 4.60893 4.82598 4.53213 4.88066 4.42133L6.66333 0.809248Z" fill="#AE9D66"/>
</svg>
