<svg width="18" height="13" viewBox="0 0 18 13" fill="none" xmlns="http://www.w3.org/2000/svg">
<path fill-rule="evenodd" clip-rule="evenodd" d="M9.27131 2.62061C11.7584 2.62071 14.1504 3.52572 15.9529 5.14858C16.0887 5.27387 16.3056 5.27229 16.4393 5.14503L17.7368 3.90496C17.8045 3.84042 17.8422 3.753 17.8417 3.66203C17.8411 3.57107 17.8023 3.48406 17.7338 3.42027C13.0028 -0.873429 5.53908 -0.873429 0.808068 3.42027C0.739536 3.48402 0.700652 3.57099 0.70002 3.66196C0.699388 3.75292 0.737061 3.84037 0.804701 3.90496L2.10257 5.14503C2.23616 5.27248 2.45329 5.27406 2.58894 5.14858C4.39168 3.52561 6.78396 2.6206 9.27131 2.62061ZM9.26953 6.76273C10.6268 6.76264 11.9357 7.26491 12.9418 8.17192C13.0779 8.30065 13.2923 8.29786 13.425 8.16563L14.7122 6.87076C14.78 6.80284 14.8176 6.7107 14.8167 6.61495C14.8157 6.51921 14.7762 6.42785 14.707 6.36132C11.6432 3.524 6.89846 3.524 3.83463 6.36132C3.76542 6.42785 3.72594 6.51925 3.72503 6.61503C3.72412 6.7108 3.76187 6.80293 3.8298 6.87076L5.11671 8.16563C5.24936 8.29786 5.46373 8.30065 5.59981 8.17192C6.60526 7.26551 7.91311 6.76329 9.26953 6.76273ZM11.7916 9.50454C11.7935 9.60794 11.7565 9.70763 11.6892 9.78007L9.51251 12.1893C9.4487 12.2601 9.36171 12.3 9.27094 12.3C9.18017 12.3 9.09318 12.2601 9.02937 12.1893L6.85234 9.78007C6.78509 9.70758 6.7481 9.60786 6.75009 9.50446C6.75208 9.40106 6.79289 9.30314 6.86288 9.23383C8.25298 7.94427 10.2889 7.94427 11.679 9.23383C11.7489 9.3032 11.7897 9.40114 11.7916 9.50454Z" fill="#181818"/>
</svg>
